# xmcd
#
# Track frame offsets: 
#        150
#        21181
#        31716
#        43054
#        55913
#        73140
#        84544
#        97636
#        112100
#        125762
#        139578
#        150183
#        160865
#        172030
#        184631
#        204140
#        214568
#        230125
#        249739
#        262264
#        275702
#        286198
#        296675
#        317192
#        335189
#
# Disc length: 4662 seconds
#
# Revision: 1
# Processed by: cddbd v1.5.2PL0 Copyright (c) Steve Scherf et al.
# Submitted via: ExactAudioCopyFreeDBPlugin 1.0
#
DISCID=77123419
DTITLE=Korner, Alexis - Every Day I Have The Blues: The Sixties Anthol
DTITLE=ogy
DYEAR=2018
DGENRE=Blues
TTITLE0=3-4 A.D. WITH DAVEY GRAHAM
TTITLE1=She Fooled Me
TTITLE2=Gotta Move
TTITLE3=Rain Is Such A Lonesome Sound
TTITLE4=I Got My Brand On You
TTITLE5=Keep Your Hands Off
TTITLE6=I Wanna Put A Tiger In Your Tank
TTITLE7=I Got My Mojo Working
TTITLE8=Down Town
TTITLE9=How Long, How Long Blues
TTITLE10=I Heard That Lonesome Whistle Blow
TTITLE11=I'm Built For Comfort (Everything She Needs)
TTITLE12=Up-Town
TTITLE13=Rockin'
TTITLE14=Night Time Is The Right Time
TTITLE15=See See Rider
TTITLE16=Blue Mink
TTITLE17=Rainy Tuesday
TTITLE18=Yogi
TTITLE19=Sappho
TTITLE20=Preachin' The Blues
TTITLE21=Taboo Man
TTITLE22=Whoa Babe LIVE
TTITLE23=Every Day I Have The Blues LIVE
TTITLE24=Well All Right, O.K., You Win LIVE
EXTD=
EXTT0=
EXTT1=
EXTT2=
EXTT3=
EXTT4=
EXTT5=
EXTT6=
EXTT7=
EXTT8=
EXTT9=
EXTT10=
EXTT11=
EXTT12=
EXTT13=
EXTT14=
EXTT15=
EXTT16=
EXTT17=
EXTT18=
EXTT19=
EXTT20=
EXTT21=
EXTT22=
EXTT23=
EXTT24=
PLAYORDER=
